<svg xmlns="http://www.w3.org/2000/svg" version="1.1" xmlns:xlink="http://www.w3.org/1999/xlink" xmlns:svgjs="http://svgjs.com/svgjs" width="120" height="120"><svg width="120" height="120" viewBox="0 0 120 120" fill="none" xmlns="http://www.w3.org/2000/svg">
<path d="M23.7232 0V118.588H17.8771V34.4471L15.9285 42.6353L12.1158 59.0117L11.9463 59.5764L11.6922 59.0117L7.8795 42.6353L5.93081 34.1647V118.588H0V0H5.93081L11.9463 25.4118L17.8771 0H23.7232Z" fill="#0AD9C6"></path>
<path d="M14.7427 59.5765L14.5732 59.0118L14.7427 59.5765Z" fill="#0AD9C6"></path>
<path d="M14.9959 59.0118L14.8264 59.5765H14.7417L14.9959 59.0118Z" fill="#0AD9C6"></path>
<path d="M67.8287 33.2154L51.6265 72.8613L55.3778 89.8873L71.58 50.2414L67.8287 33.2154Z" fill="#0AD9C6"></path>
<path d="M47.339 17.7479C40.4797 17.7479 34.8359 36.2666 34.8359 59.4149C34.8359 82.2738 40.3928 101.082 47.339 101.082C54.1983 101.082 59.842 82.5632 59.842 59.4149C59.842 36.5559 54.1983 17.7479 47.339 17.7479ZM47.339 78.5122C44.1264 78.5122 41.6084 69.8316 41.6084 59.4149C41.6084 48.7088 44.2132 40.3175 47.339 40.3175C50.4647 40.3175 53.0695 48.9981 53.0695 59.4149C53.0695 69.8316 50.4647 78.5122 47.339 78.5122Z" fill="#0AD9C6"></path>
<path d="M77.4689 17.7479C70.6096 17.7479 64.9658 36.2665 64.9658 59.4148C64.9658 82.2738 70.5227 101.082 77.4689 101.082C84.3282 101.082 89.9719 82.5631 89.9719 59.4148C89.885 36.5559 84.3282 17.7479 77.4689 17.7479ZM77.4689 78.5122C74.2563 78.5122 71.7383 69.8316 71.7383 59.4148C71.7383 48.7088 74.3431 40.3175 77.4689 40.3175C80.5946 40.3175 83.1994 48.9981 83.1994 59.4148C83.1994 69.8316 80.5946 78.5122 77.4689 78.5122Z" fill="#0AD9C6"></path>
<path d="M120 1.41186V120H114.069V58.4471L109.07 42.6354L105.342 30.4942V120H99.4116V1.41186H105.258H105.342L112.29 23.7177L114.069 29.3648V1.41186H120Z" fill="#0AD9C6"></path>
<rect x="65.6836" y="17.7479" width="10.6512" height="23.6639" fill="#0AD9C6"></rect>
</svg><style>@media (prefers-color-scheme: light) { :root { filter: none; } }
</style></svg>